<mxfile host="app.diagrams.net" modified="2024-06-06T14:51:54.321Z" agent="Mozilla/5.0 (X11; Ubuntu; Linux x86_64; rv:126.0) Gecko/20100101 Firefox/126.0" version="24.4.15" etag="QeMNGEw4DpYxNPhvXib_" type="github">
  <diagram name="Pagina-1" id="9Ppm4kdax_55ZIcOmFFS">
    <mxGraphModel>
      <root>
        <mxCell id="0" />
        <mxCell id="1" parent="0" />
      </root>
    </mxGraphModel>
  </diagram>
</mxfile>
